<svg xmlns="http://www.w3.org/2000/svg" viewBox="0 0 220 40" fill="none">
  <!-- Anvil icon mark -->
  <rect x="4" y="20" width="28" height="4" rx="1" fill="#4A7CFF"/>
  <rect x="8" y="12" width="20" height="10" rx="1" fill="#4A7CFF"/>
  <rect x="11" y="8" width="6" height="6" rx="1" fill="#F0A830"/>
  <rect x="10" y="24" width="4" height="8" rx="1" fill="#4A7CFF"/>
  <rect x="22" y="24" width="4" height="8" rx="1" fill="#4A7CFF"/>
  <!-- Wordmark: SkillForge — geometric pixel-style -->
  <g fill="#E8ECF4">
    <!-- S -->
    <rect x="42" y="12" width="10" height="2.5"/>
    <rect x="42" y="12" width="2.5" height="8"/>
    <rect x="42" y="18" width="10" height="2.5"/>
    <rect x="49.5" y="18" width="2.5" height="8"/>
    <rect x="42" y="24" width="10" height="2.5"/>
    <!-- k -->
    <rect x="55" y="12" width="2.5" height="14.5"/>
    <rect x="57.5" y="19" width="2.5" height="2.5"/>
    <rect x="60" y="17" width="2.5" height="2.5"/>
    <rect x="62.5" y="14.5" width="2.5" height="2.5"/>
    <rect x="60" y="21.5" width="2.5" height="2.5"/>
    <rect x="62.5" y="24" width="2.5" height="2.5"/>
    <!-- i -->
    <rect x="68" y="12" width="2.5" height="2.5"/>
    <rect x="68" y="17" width="2.5" height="9.5"/>
    <!-- l -->
    <rect x="73" y="12" width="2.5" height="14.5"/>
    <!-- l -->
    <rect x="78" y="12" width="2.5" height="14.5"/>
    <!-- F -->
    <rect x="84" y="12" width="10" height="2.5"/>
    <rect x="84" y="12" width="2.5" height="14.5"/>
    <rect x="84" y="18" width="8" height="2.5"/>
    <!-- o -->
    <rect x="97" y="17" width="10" height="2.5"/>
    <rect x="97" y="17" width="2.5" height="9.5"/>
    <rect x="104.5" y="17" width="2.5" height="9.5"/>
    <rect x="97" y="24" width="10" height="2.5"/>
    <!-- r -->
    <rect x="110" y="17" width="2.5" height="9.5"/>
    <rect x="112.5" y="17" width="5" height="2.5"/>
    <rect x="117.5" y="17" width="2.5" height="4"/>
    <!-- g -->
    <rect x="123" y="17" width="10" height="2.5"/>
    <rect x="123" y="17" width="2.5" height="9.5"/>
    <rect x="130.5" y="17" width="2.5" height="14"/>
    <rect x="123" y="24" width="10" height="2.5"/>
    <rect x="123" y="28.5" width="10" height="2.5"/>
    <!-- e -->
    <rect x="136" y="17" width="10" height="2.5"/>
    <rect x="136" y="17" width="2.5" height="9.5"/>
    <rect x="136" y="20" width="10" height="2.5"/>
    <rect x="136" y="24" width="10" height="2.5"/>
  </g>
</svg>
